<svg width="1200" height="900" viewBox="0 0 1200 900" fill="none" xmlns="http://www.w3.org/2000/svg">
  <rect width="1200" height="900" rx="48" fill="#0F172A"/>
  <rect x="52" y="52" width="1096" height="796" rx="36" fill="url(#paint0_linear_7_7)"/>
  <path d="M262 546C262 478 316 424 384 424H798C866 424 920 478 920 546V573H262V546Z" fill="#E2E8F0"/>
  <path d="M401 424C438 362 503 326 578 326H724C783 326 837 364 867 424H401Z" fill="#F8FAFC"/>
  <circle cx="395" cy="600" r="66" fill="#0F172A"/>
  <circle cx="789" cy="600" r="66" fill="#0F172A"/>
  <circle cx="395" cy="600" r="28" fill="#CBD5E1"/>
  <circle cx="789" cy="600" r="28" fill="#CBD5E1"/>
  <text x="194" y="200" fill="#C4B5FD" font-family="Segoe UI, Arial" font-size="26" font-weight="700">UzCar Rent</text>
  <text x="194" y="278" fill="#FFFFFF" font-family="Segoe UI, Arial" font-size="64" font-weight="800">Lexus RX</text>
  <text x="194" y="340" fill="#E9D5FF" font-family="Segoe UI, Arial" font-size="30">Bukhara • Premium SUV • Automatic</text>
  <defs>
    <linearGradient id="paint0_linear_7_7" x1="88" y1="120" x2="1088" y2="802" gradientUnits="userSpaceOnUse">
      <stop stop-color="#7C3AED"/>
      <stop offset="1" stop-color="#C4B5FD" stop-opacity="0.16"/>
    </linearGradient>
  </defs>
</svg>
